Hanif_Deep_5_0_grf.mot
version=1
nRows=37
nColumns=19
inDegrees=yes
endheader
time	right_ground_force_vx	right_ground_force_vy	right_ground_force_vz	right_ground_force_px	right_ground_force_py	right_ground_force_pz	right_ground_torque_x	right_ground_torque_y	right_ground_torque_z	left_ground_force_vx	left_ground_force_vy	left_ground_force_vz	left_ground_force_px	left_ground_force_py	left_ground_force_pz	left_ground_torque_x	left_ground_torque_y	left_ground_torque_z
4.625000	-9.927320	251.707000	43.606600	0.210836	0.000000	-1.427770	-19.882500	3.634210	3.573490	-1.213920	295.656000	-50.278900	0.216157	0.000000	-0.983046	23.695100	-6.145310	5.976510
4.630000	-9.802940	249.277000	43.795200	0.211291	0.000000	-1.426760	-19.944400	3.615630	3.673160	-1.050760	293.510000	-50.220400	0.215495	0.000000	-0.983004	23.507000	-6.131710	5.744490
4.635000	-9.382040	245.461000	43.614100	0.211124	0.000000	-1.427300	-19.503000	3.644630	3.595590	-1.156430	289.139000	-50.682600	0.216112	0.000000	-0.983840	23.401700	-6.043790	5.877470
4.640000	-8.658100	242.828000	43.315000	0.209941	0.000000	-1.426570	-19.458400	3.664130	3.267000	-1.285500	284.889000	-50.590000	0.216780	0.000000	-0.983114	22.854100	-5.827730	5.984390
4.645000	-7.747010	240.920000	43.550800	0.210438	0.000000	-1.427140	-19.151500	3.676220	3.371860	-1.817450	282.317000	-50.574400	0.217466	0.000000	-0.983047	22.642000	-5.699010	6.136150
4.650000	-6.796630	236.544000	43.348800	0.210214	0.000000	-1.426900	-18.845800	3.717300	3.277010	-2.544710	277.744000	-50.557500	0.217761	0.000000	-0.984180	22.608500	-5.580160	6.149740
4.655000	-6.325570	231.377000	43.593800	0.210059	0.000000	-1.426920	-18.423000	3.629120	3.187950	-3.084070	276.746000	-50.589200	0.218563	0.000000	-0.983442	22.335200	-5.377410	6.337130
4.660000	-5.667920	230.557000	43.500500	0.211066	0.000000	-1.427550	-18.201300	3.686020	3.421460	-3.911340	274.111000	-50.107100	0.219762	0.000000	-0.984130	22.331900	-5.222820	6.610650
4.665000	-5.471300	227.413000	43.829900	0.210269	0.000000	-1.426590	-18.167000	3.638090	3.207010	-4.761910	273.106000	-50.195300	0.220056	0.000000	-0.983000	21.961400	-5.081190	6.666420
4.670000	-5.922460	225.309000	44.268600	0.210613	0.000000	-1.426890	-17.944700	3.609660	3.284860	-4.670560	271.840000	-50.397000	0.220966	0.000000	-0.982888	21.826200	-4.937140	6.879870
4.675000	-6.171950	224.316000	44.327200	0.210928	0.000000	-1.426970	-17.851000	3.479130	3.331050	-5.344400	267.850000	-50.767900	0.221207	0.000000	-0.983728	21.749200	-4.814450	6.878760
4.680000	-6.587410	223.154000	44.503100	0.211760	0.000000	-1.426190	-17.944600	3.525400	3.536610	-5.417120	265.790000	-51.164400	0.220197	0.000000	-0.983200	21.443100	-4.750210	6.565150
4.685000	-7.166180	221.652000	44.660700	0.211360	0.000000	-1.426180	-17.840700	3.482330	3.437030	-5.351820	261.620000	-51.971200	0.219580	0.000000	-0.983130	21.089800	-4.719770	6.347310
4.690000	-7.196580	219.489000	45.298700	0.211512	0.000000	-1.426480	-17.606100	3.523790	3.479680	-5.041900	260.909000	-52.571900	0.217572	0.000000	-0.981532	20.607300	-4.765660	5.810980
4.695000	-7.044690	219.373000	45.187600	0.211565	0.000000	-1.426250	-17.645300	3.575480	3.496880	-4.171910	256.993000	-53.101000	0.217764	0.000000	-0.981587	20.294200	-4.761610	5.811860
4.700000	-6.585660	218.474000	46.072400	0.210767	0.000000	-1.426520	-17.501100	3.542180	3.314220	-4.096570	254.140000	-53.711500	0.216078	0.000000	-0.981227	19.976000	-4.734830	5.336980
4.705000	-6.804620	215.793000	46.727600	0.210846	0.000000	-1.426530	-17.295700	3.607820	3.348580	-3.416610	249.231000	-54.756900	0.215486	0.000000	-0.981107	19.546800	-4.733040	5.144260
4.710000	-7.106630	214.594000	47.152000	0.210850	0.000000	-1.427090	-17.088100	3.589350	3.352690	-2.921940	247.466000	-55.374700	0.214653	0.000000	-0.980433	19.230900	-4.806520	4.933790
4.715000	-5.829610	214.922000	47.560900	0.210184	0.000000	-1.427250	-17.050100	3.643670	3.203930	-2.903950	245.764000	-55.899700	0.213621	0.000000	-0.980511	19.117200	-4.751720	4.652780
4.720000	-5.131390	212.966000	48.490700	0.210210	0.000000	-1.427300	-16.870700	3.663240	3.213210	-2.316200	244.016000	-56.443300	0.212674	0.000000	-0.980128	18.874500	-4.808870	4.411900
4.725000	-4.236140	210.483000	49.522100	0.208482	0.000000	-1.427450	-16.624400	3.729190	2.839740	-2.617010	241.495000	-56.915300	0.212188	0.000000	-0.979708	18.586500	-4.805730	4.286660
4.730000	-3.746960	211.195000	50.483400	0.208127	0.000000	-1.430890	-15.939700	3.679420	2.761270	-2.174460	239.161000	-56.962300	0.211643	0.000000	-0.978694	18.153800	-4.753580	4.113900
4.735000	-2.850390	208.409000	51.687900	0.207095	0.000000	-1.429310	-16.043700	3.792070	2.564240	-1.929220	236.787000	-57.400400	0.210687	0.000000	-0.977438	17.671100	-4.769450	3.870150
4.740000	-1.682430	209.210000	52.831600	0.207499	0.000000	-1.431270	-15.668400	3.626120	2.616350	-2.294670	234.737000	-57.621200	0.209556	0.000000	-0.977728	17.594800	-4.740070	3.584050
4.745000	-1.214560	208.250000	54.106100	0.207154	0.000000	-1.430540	-15.738200	3.565710	2.540560	-1.777000	231.750000	-57.561000	0.209257	0.000000	-0.977811	17.378300	-4.667870	3.470150
4.750000	-0.393405	207.145000	54.895500	0.206750	0.000000	-1.431250	-15.491500	3.531280	2.440030	-1.635600	229.609000	-57.544500	0.209037	0.000000	-0.975832	16.760000	-4.565540	3.379490
4.755000	0.082845	206.983000	54.960400	0.206250	0.000000	-1.432830	-15.143700	3.559390	2.328390	-1.881940	226.654000	-57.387500	0.207742	0.000000	-0.975482	16.470500	-4.498380	3.040780
4.760000	0.212820	206.416000	55.603200	0.206657	0.000000	-1.430600	-15.560700	3.440810	2.396260	-1.993430	224.089000	-57.444500	0.207891	0.000000	-0.975534	16.298600	-4.394330	3.048070
4.765000	0.518118	206.426000	55.779300	0.206386	0.000000	-1.430640	-15.546200	3.420660	2.328280	-2.399380	223.774000	-57.397800	0.207534	0.000000	-0.974981	16.160000	-4.285080	2.940250
4.770000	0.880411	206.380000	55.222700	0.206398	0.000000	-1.430570	-15.552000	3.384230	2.302730	-2.995220	221.296000	-57.183900	0.207246	0.000000	-0.974643	15.919500	-4.189720	2.848650
4.775000	0.406179	205.270000	54.943300	0.207606	0.000000	-1.431300	-15.327500	3.207200	2.523440	-3.137310	220.848000	-57.484500	0.206344	0.000000	-0.973796	15.702300	-4.146120	2.633050
4.780000	0.276217	204.457000	54.707400	0.207882	0.000000	-1.431060	-15.318400	2.974170	2.517250	-3.537760	217.124000	-56.806400	0.206038	0.000000	-0.973841	15.456300	-4.016940	2.517280
4.785000	-0.397841	205.136000	54.497900	0.207489	0.000000	-1.430210	-15.554100	2.954010	2.437460	-4.025370	216.754000	-56.637300	0.205679	0.000000	-0.974702	15.626500	-3.953200	2.423470
4.790000	-0.697868	203.021000	54.228200	0.207025	0.000000	-1.429450	-15.553300	2.863480	2.307190	-4.088520	212.653000	-56.422400	0.204993	0.000000	-0.974632	15.319100	-3.921750	2.254800
4.795000	-1.119780	202.302000	54.054800	0.207170	0.000000	-1.429810	-15.432100	2.763480	2.315280	-4.350480	212.024000	-55.729600	0.203971	0.000000	-0.974006	15.146200	-3.917600	2.011110
4.800000	-1.635590	201.800000	54.268200	0.207067	0.000000	-1.431810	-14.995900	2.624980	2.267860	-4.420600	209.332000	-55.004200	0.203386	0.000000	-0.974119	14.979500	-3.858810	1.854210
4.805000	-1.931840	200.865000	54.264300	0.207743	0.000000	-1.431970	-14.898300	2.437860	2.366110	-5.310180	209.018000	-54.239400	0.202140	0.000000	-0.972701	14.677500	-3.793540	1.557830
